<svg xmlns="http://www.w3.org/2000/svg" version="1.1" xmlns:xlink="http://www.w3.org/1999/xlink" xmlns:svgjs="http://svgjs.dev/svgjs" width="2000" height="2600" viewBox="0 0 2000 2600"><g transform="matrix(1,0,0,1,0.6503519946363667,1.0526315789472847)"><svg viewBox="0 0 190 247" data-background-color="#000000" preserveAspectRatio="xMidYMid meet" height="2600" width="2000" xmlns="http://www.w3.org/2000/svg" xmlns:xlink="http://www.w3.org/1999/xlink"><g id="tight-bounds" transform="matrix(1,0,0,1,-0.06178343949045484,-0.09999999999999432)"><svg viewBox="0 0 190.12356687898088 247.2" height="247.2" width="190.12356687898088"><g><svg viewBox="0 0 190.12356687898088 247.2" height="247.2" width="190.12356687898088"><g><svg viewBox="0 0 190.12356687898088 247.2" height="247.2" width="190.12356687898088"><g id="textblocktransform"><svg viewBox="0 0 190.12356687898088 247.2" height="247.2" width="190.12356687898088" id="textblock"><g><svg viewBox="0 0 190.12356687898088 247.2" height="247.2" width="190.12356687898088"><g transform="matrix(1,0,0,1,0,0)"><svg width="190.12356687898088" viewBox="5 -31.4 24.15 31.4" height="247.2" data-palette-color="url(#f4df4954-94bf-437e-b5bf-c9d4c45e3ab2)"></svg></g></svg></g></svg></g></svg></g><g></g></svg></g><defs></defs><mask id="e1cce10d-d0b5-45d0-b323-fa711bcf2613"><g id="SvgjsG1008"><svg viewBox="0 0 190.12356687898088 247.2" height="247.2" width="190.12356687898088"><g><svg viewBox="0 0 190.12356687898088 247.2" height="247.2" width="190.12356687898088"><g><svg viewBox="0 0 190.12356687898088 247.2" height="247.2" width="190.12356687898088"><g id="SvgjsG1007"><svg viewBox="0 0 190.12356687898088 247.2" height="247.2" width="190.12356687898088" id="SvgjsSvg1006"><g><svg viewBox="0 0 190.12356687898088 247.2" height="247.2" width="190.12356687898088"><g transform="matrix(1,0,0,1,0,0)"><svg width="190.12356687898088" viewBox="5 -31.4 24.15 31.4" height="247.2" data-palette-color="url(#f4df4954-94bf-437e-b5bf-c9d4c45e3ab2)"><path d="M5 0L5-31.4 9.65-31.4 25.6-5.55 25.25-5.55 25.25-31.4 29.15-31.4 29.15 0 24.8 0 8.3-26.7 8.9-26.7 8.9 0 5 0Z" opacity="1" transform="matrix(1,0,0,1,0,0)" fill="white" class="wordmark-text-0" id="SvgjsPath1005"></path></svg></g></svg></g></svg></g></svg></g><g></g></svg></g><defs><mask></mask></defs></svg><rect width="190.12356687898088" height="247.2" fill="black" stroke="none" visibility="hidden"></rect></g></mask><linearGradient x1="0.054" x2="0.941" y1="0.5" y2="0.5" id="f4df4954-94bf-437e-b5bf-c9d4c45e3ab2"><stop stop-color="#0f3054" offset="0"></stop><stop stop-color="#3b8dcb" offset="0.498"></stop><stop stop-color="#0f3054" offset="1"></stop></linearGradient><rect width="190.12356687898088" height="247.2" fill="url(#f4df4954-94bf-437e-b5bf-c9d4c45e3ab2)" mask="url(#e1cce10d-d0b5-45d0-b323-fa711bcf2613)" data-fill-palette-color="primary"></rect></svg><rect width="190.12356687898088" height="247.2" fill="none" stroke="none" visibility="hidden"></rect></g></svg></g></svg>